#!OML:ASF F:\VICON\USERDATA\INSTALL\rory3\rory3.ASF
:FULLY-SPECIFIED
:DEGREES
73
root 0.056114857024792686 17.79992494603961 31.098763061777262 -0.39822045475146606 -4.779041035837852 -7.607886687330872
lfemur -26.626254424118798 -3.5124010523241296 -10.224623846460585
ltibia 21.229378349805735
lfoot -5.458098436257352 -2.472486408359399
ltoes -2.485486945921275
rfemur 1.4829227187536933 5.905431798325797 33.3074481355633
rtibia 24.617207805102744
rfoot -6.856032037158126 -5.670937766269073
rtoes -0.15604822137727936
lowerback 9.865853974310664 1.3488555049581805 5.77969261378573
upperback 0.1912445140839606 2.7982562032526896 1.7994119966633864
thorax -5.218133777617944 1.3834429056161692 -2.0124552162104656
lowerneck -15.960600825963592 -2.8853510076300575 -2.925755224388873
upperneck 21.244569903078887 -3.4748292424014084 1.3973737225143144
head 9.285749787371147 -1.79914058734917 0.4570007415677767
lclavicle -4.519240285741925e-16 -7.862610765167663e-16
lhumerus -35.41440019638896 5.465649598548815 79.35269725607823
lradius 24.35222091151035
lwrist 4.477410191600005
lhand -27.737808066209663 21.572975679332583
lfingers 7.12502
lthumb -1.3272666624786331 51.20803662470469
rclavicle -4.529625750190085e-16 -7.7624398871319e-16
rhumerus -22.848945915871525 -10.857093237396715 -81.43173592991432
rradius 29.312801271524446
rwrist -1.736083520684451
rhand -17.88255830120288 22.733356162799538
rfingers 7.12502
rthumb 8.466043117946997 -7.118605062707316
74
root 0.10930386132207623 17.738517004550538 31.78762454252964 -0.13088422854274695 -5.152106612095572 -7.509770644075605
lfemur -25.523053492295517 -6.271792056500505 -9.4699219530814
ltibia 11.824625732504405
lfoot -4.8906399800770775 -3.0859628788973468
ltoes -2.5418950650457965
rfemur 2.8872430747328046 5.792398776472077 33.02689824961476
rtibia 23.823361670751353
rfoot -6.0725284867751 -5.0317512442555135
rtoes 1.6559097845606265
lowerback 9.680925819345221 1.5130344827663855 5.90011765239186
upperback 0.17166768488620424 2.953032573985497 1.756452023275124
thorax -5.120156057293841 1.5146289406996547 -2.2381168087840893
lowerneck -15.933668808245475 -2.8804838407800233 -2.909314730351938
upperneck 21.242640293061587 -3.536332306756825 1.458369596196384
head 9.281495583088024 -1.803020915646341 0.4744174847627065
lclavicle -4.519239844547926e-16 -7.862610725803489e-16
lhumerus -35.5390432168511 5.687699800466065 79.24199982974741
lradius 23.610396550081088
lwrist 4.0375636327306275
lhand -27.750655754994092 21.474894584937232
lfingers 7.12502
lthumb -1.324110170345313 51.12644003361245
rclavicle -4.529626408021618e-16 -7.762440392669419e-16
rhumerus -22.43722917000614 -11.02555517941681 -81.49625766302235
rradius 30.45127238193419
rwrist -2.069466829372775
rhand -17.869480627720314 22.77508259714358
rfingers 7.12502
rthumb 8.484225669877532 -7.147505415823573
75
root 0.17817072559551878 17.69007576279274 32.64419334776039 -0.275408149934369 -5.228872288117887 -7.023611400388996
lfemur -24.955534685971948 -5.827510320264114 -10.445530737737625
ltibia 9.7272634726292
lfoot -4.345919746405849 -4.001025058509876
ltoes -2.6181958038134465
rfemur 3.8176090724794616 5.578262468323398 32.47491764319909
rtibia 24.76107166038665
rfoot -4.742364879639479 -4.262690288674075
rtoes 3.6674353340773727
lowerback 9.524007521710786 1.6282461779065431 5.811392623489873
upperback 0.15709939530000686 3.039898298924845 1.6843123101919577
thorax -5.0364439612458405 1.6031648438891355 -2.341624560675302
lowerneck -15.893643338131552 -2.883934700064959 -2.894431278794377
upperneck 21.23163297148364 -3.6184126189566066 1.553823793607632
head 9.28524037357611 -1.8124076776347928 0.4980723303677531
lclavicle -4.519238644128982e-16 -7.862610142326643e-16
lhumerus -35.30933418811995 6.172696900976063 79.19477261149503
lradius 22.818342844524516
lwrist 3.4903353841891596
lhand -27.77408123731305 21.36728822847853
lfingers 7.12502
lthumb -1.310696576320897 51.08521765637259
rclavicle -4.529626396138292e-16 -7.762440376767509e-16
rhumerus -22.514270158976156 -11.516327553379826 -81.44172562721266
rradius 31.500314269276597
rwrist -2.0973617153707327
rhand -17.851439241705453 22.798888842754454
rfingers 7.12502
rthumb 8.494665156749884 -7.181575095667584
76
root 0.2601969754508432 17.6707874991372 33.662101676375414 -0.8076690034733036 -4.950240866609699 -6.148730916300375
lfemur -24.98830736720528 -4.103631966714228 -12.301789147655278
ltibia 14.589689521482754
lfoot -3.327276004468408 -4.436633014690819
ltoes -2.655579047040117
rfemur 4.318149248114006 5.167555840209188 31.61569227390403
rtibia 27.350556613760872
rfoot -2.8430880677482504 -3.740992094724025
rtoes 5.161725339556288
lowerback 9.408270395218453 1.6878085273046513 5.493144054812691
upperback 0.14802562372430197 3.061860828199741 1.5810388619512887
thorax -4.984401358759766 1.6506194614119765 -2.3474813812872073
lowerneck -15.852163251718999 -2.896099819328143 -2.885239565896973
upperneck 21.229599404974568 -3.7065882303464797 1.6595538279194624
head 9.294252202127948 -1.8237836454513279 0.5192341458303582
lclavicle -4.519237884168034e-16 -7.862609485109222e-16
lhumerus -34.8467729876237 6.748136553321693 79.24741396291613
lradius 22.019610976501966
lwrist 3.0008335949112332
lhand -27.785212735824366 21.313774699331386
lfingers 7.12502
lthumb -1.3015192585608162 51.04242289350061
rclavicle -4.529626391188629e-16 -7.762440374581406e-16
rhumerus -23.188926195833208 -12.398426687262388 -81.29378908057146
rradius 32.40697411390538
rwrist -1.8902857726097677
rhand -17.830711321314578 22.799408948885326
rfingers 7.12502
rthumb 8.505813285694437 -7.195533811423997
77
root 0.34792533284174637 17.684259039838548 34.635329889893995 -1.5716545044152248 -4.529664035681699 -5.037991498795538
lfemur -24.442238785608073 -3.3981109134905356 -14.204076462646746
ltibia 19.836041232381053
lfoot -3.218061570608049 -5.482723029282326
ltoes -2.728605207478866
rfemur 3.789002821039725 4.360482596035961 30.078113046058267
rtibia 31.79974865745484
rfoot -0.781825540690626 -3.5590414202082563
rtoes 5.887110862643471
lowerback 9.352645625502138 1.705284688071933 4.991397192700885
upperback 0.1477546060642122 3.0266242927974965 1.451122928098297
thorax -4.9693472849057665 1.6676625696791354 -2.277884073731993
lowerneck -15.816246541618119 -2.91284810915137 -2.88115748490001
upperneck 21.24457148367259 -3.7758534016393708 1.7260094828180976
head 9.304741152009802 -1.8318128029147012 0.5291396200407931
lclavicle -4.519238352054849e-16 -7.862609645140387e-16
lhumerus -34.471327472328205 7.025981722669189 79.37592645291481
lradius 21.271072381495575
lwrist 2.6391299140887874
lhand -27.796936976955838 21.269655616197877
lfingers 7.12502
lthumb -1.296345895570897 50.9976398292511
rclavicle -4.529626167178097e-16 -7.762440200102785e-16
rhumerus -24.06595422180399 -13.195625943764345 -80.96641315628935
rradius 33.09754905478907
rwrist -1.4888408929418508
rhand -17.805566104371092 22.78584976821235
rfingers 7.12502
rthumb 8.514059737257652 -7.200950862450781
78
root 0.4347164744746052 17.721664880223244 35.49207533886639 -2.3557516295383536 -4.305851836455087 -3.8660288191760275
lfemur -23.293222630376356 -2.9023294561904986 -16.235818242950366
ltibia 23.449273921320486
lfoot -2.7719136909713593 -5.4870191110496815
ltoes -2.6823935979742064
rfemur 2.2596691473185935 3.4681059767482947 28.32399909360116
rtibia 38.32586361196715
rfoot 0.9477662580312298 -3.7259019742202355
rtoes 5.95824105765881
lowerback 9.377727871415956 1.6967553840417298 4.343826378728639
upperback 0.15996209763941538 2.9301452604054923 1.3007064582953394
thorax -4.990541621378983 1.6632231265378286 -2.1446509694371407
lowerneck -15.803610355327182 -2.933106532945451 -2.886844968650821
upperneck 21.25520205593068 -3.8075844251422044 1.7305327189251036
head 9.313843944374092 -1.834362989126136 0.5237092164346995
lclavicle -4.51923833411791e-16 -7.862609728582691e-16
lhumerus -34.22967787231298 6.841047405254095 79.55017989495877
lradius 20.62771099121819
lwrist 2.3366437408849556
lhand -27.798610807781603 21.26104520266559
lfingers 7.12502
lthumb -1.2963682876363396 50.95661865900942
rclavicle -4.529626283577103e-16 -7.762440300231275e-16
rhumerus -24.95490124107499 -13.816869858564079 -80.71076636109183
rradius 33.48592884843826
rwrist -0.9170381666546819
rhand -17.77703521285347 22.765152137460937
rfingers 7.12502
rthumb 8.51360154438424 -7.212098420715543
79
root 0.5124817785161795 17.767638815716577 36.168579225390566 -3.022927112263409 -4.470611835171114 -2.7284935053167545
lfemur -21.680027786601435 -2.2132573753122555 -18.333697499950024
ltibia 26.542449687260643
lfoot -3.363382155788155 -5.207668301389745
ltoes -2.655412982920118
rfemur -0.6320642667202865 2.771240368274391 26.52388486723168
rtibia 46.561678931856065
rfoot 1.758639874915147 -4.376833317974815
rtoes 5.776143541949647
lowerback 9.49455571738702 1.6676715425889514 3.581914443951181
upperback 0.18918762454893856 2.77898105254189 1.14770258994426
thorax -5.046113740060952 1.6378055780255787 -1.9539048720211334
lowerneck -15.81562955699529 -2.9495059427036523 -2.89323820439435
upperneck 21.249122185414404 -3.796173439978106 1.6826559057519959
head 9.315224278199153 -1.8329695758464954 0.5022433683083486
lclavicle -4.519238070030189e-16 -7.862609666503769e-16
lhumerus -33.986317997258 6.529050619207291 79.69348595312259
lradius 20.12973659464057
lwrist 2.289000267245878
lhand -27.803981565812194 21.249859029110254
lfingers 7.12502
lthumb -1.3019382831757365 50.918981077703464
rclavicle -4.529626550546134e-16 -7.762440503885121e-16
rhumerus -25.756238643609958 -14.426672946038533 -80.68843944831633
rradius 33.485919058216865
rwrist -0.20562047857570764
rhand -17.7498427667054 22.735976680887585
rfingers 7.12502
rthumb 8.505437284432546 -7.223635229304938
